<?xml version="1.0" encoding="UTF-8" standalone="no"?>
<!DOCTYPE svg PUBLIC "-//W3C//DTD SVG 1.1//EN" "http://www.w3.org/Graphics/SVG/1.1/DTD/svg11.dtd">
<svg width="100%" height="100%" viewBox="0 0 112 112" version="1.1" xmlns="http://www.w3.org/2000/svg" xmlns:xlink="http://www.w3.org/1999/xlink" xml:space="preserve" xmlns:serif="http://www.serif.com/" style="fill-rule:evenodd;clip-rule:evenodd;stroke-linecap:round;stroke-linejoin:round;stroke-miterlimit:1.5;">
    <g id="open">
        <g transform="matrix(1.00936,0,0,1.0081,-0.955538,-0.854801)">
            <path d="M23.431,5.439C13.6,5.442 5.63,13.419 5.624,23.263C5.611,41.856 5.592,70.838 5.579,89.433C5.576,94.16 7.449,98.694 10.786,102.038C14.122,105.382 18.649,107.261 23.37,107.262C41.955,107.268 70.929,107.276 89.496,107.281C94.204,107.282 98.72,105.41 102.048,102.077C105.377,98.743 107.246,94.222 107.244,89.508C107.235,70.922 107.222,41.92 107.213,23.295C107.208,13.418 99.208,5.414 89.343,5.417C70.796,5.423 41.954,5.433 23.431,5.439Z" style="fill:none;stroke:#C5C5C5;stroke-width:8px;"/>
        </g>
        <g transform="matrix(1,0,0,1,1.2816,-1.42548)">
            <path d="M54.545,57.788L88.336,23.744" style="fill:none;stroke:#C5C5C5;stroke-width:8px;"/>
        </g>
        <g transform="matrix(1,0,0,1,1.2816,-1.42548)">
            <path d="M60.02,23.658L88.336,23.744L88.274,50.204" style="fill:none;stroke:#C5C5C5;stroke-width:8px;"/>
        </g>
    </g>
</svg>
