<?xml version="1.0" encoding="UTF-8" standalone="no"?>
<!DOCTYPE svg PUBLIC "-//W3C//DTD SVG 1.1//EN" "http://www.w3.org/Graphics/SVG/1.1/DTD/svg11.dtd">
<svg width="100%" height="100%" viewBox="0 0 112 112" version="1.1" xmlns="http://www.w3.org/2000/svg" xmlns:xlink="http://www.w3.org/1999/xlink" xml:space="preserve" xmlns:serif="http://www.serif.com/" style="fill-rule:evenodd;clip-rule:evenodd;stroke-linecap:round;stroke-linejoin:round;stroke-miterlimit:1.5;">
    <g transform="matrix(0.930074,0,0,0.932779,3.57401,3.35054)">
        <g id="settings">
            <path d="M62.205,1.892C58.196,1.448 54.151,1.448 50.142,1.892L45.364,19.17C42.625,19.965 39.983,21.059 37.485,22.433L21.886,13.594C18.738,16.114 15.877,18.975 13.356,22.123L22.197,37.719C20.823,40.217 19.728,42.858 18.933,45.596L1.652,50.374C1.209,54.382 1.209,58.427 1.652,62.436L18.933,67.213C19.728,69.951 20.823,72.593 22.197,75.091L13.356,90.687C15.877,93.835 18.738,96.695 21.886,99.216L37.485,90.376C39.983,91.75 42.625,92.844 45.364,93.639L50.142,110.918C54.151,111.361 58.196,111.361 62.205,110.918L66.983,93.639C69.722,92.844 72.364,91.75 74.862,90.376L90.461,99.216C93.609,96.695 96.47,93.835 98.991,90.687L90.15,75.091C91.524,72.593 92.619,69.951 93.414,67.213L110.695,62.436C111.138,58.427 111.138,54.382 110.695,50.374L93.414,45.596C92.619,42.858 91.524,40.217 90.15,37.719L98.991,22.123C96.47,18.975 93.609,16.114 90.461,13.594L74.862,22.433C72.364,21.059 69.722,19.965 66.983,19.17L62.205,1.892Z" style="fill:#C5C5C5;fill-opacity:0;"/>
            <clipPath id="_clip1">
                <path d="M62.205,1.892C58.196,1.448 54.151,1.448 50.142,1.892L45.364,19.17C42.625,19.965 39.983,21.059 37.485,22.433L21.886,13.594C18.738,16.114 15.877,18.975 13.356,22.123L22.197,37.719C20.823,40.217 19.728,42.858 18.933,45.596L1.652,50.374C1.209,54.382 1.209,58.427 1.652,62.436L18.933,67.213C19.728,69.951 20.823,72.593 22.197,75.091L13.356,90.687C15.877,93.835 18.738,96.695 21.886,99.216L37.485,90.376C39.983,91.75 42.625,92.844 45.364,93.639L50.142,110.918C54.151,111.361 58.196,111.361 62.205,110.918L66.983,93.639C69.722,92.844 72.364,91.75 74.862,90.376L90.461,99.216C93.609,96.695 96.47,93.835 98.991,90.687L90.15,75.091C91.524,72.593 92.619,69.951 93.414,67.213L110.695,62.436C111.138,58.427 111.138,54.382 110.695,50.374L93.414,45.596C92.619,42.858 91.524,40.217 90.15,37.719L98.991,22.123C96.47,18.975 93.609,16.114 90.461,13.594L74.862,22.433C72.364,21.059 69.722,19.965 66.983,19.17L62.205,1.892Z"/>
            </clipPath>
            <g clip-path="url(#_clip1)">
                <g transform="matrix(1.63047,0,0,1.62575,-32.2942,-32.6522)">
                    <path d="M54.159,45.338C59.686,45.338 64.173,49.813 64.173,55.326C64.173,60.838 59.686,65.314 54.159,65.314C48.632,65.314 44.145,60.838 44.145,55.326C44.145,49.813 48.632,45.338 54.159,45.338ZM54.159,45.338C59.686,45.338 64.173,49.813 64.173,55.326C64.173,60.838 59.686,65.314 54.159,65.314C48.632,65.314 44.145,60.838 44.145,55.326C44.145,49.813 48.632,45.338 54.159,45.338Z" style="fill:#C5C5C5;fill-opacity:0;stroke:#C5C5C5;stroke-width:6px;"/>
                </g>
            </g>
            <path d="M62.205,1.892C58.196,1.448 54.151,1.448 50.142,1.892L45.364,19.17C42.625,19.965 39.983,21.059 37.485,22.433L21.886,13.594C18.738,16.114 15.877,18.975 13.356,22.123L22.197,37.719C20.823,40.217 19.728,42.858 18.933,45.596L1.652,50.374C1.209,54.382 1.209,58.427 1.652,62.436L18.933,67.213C19.728,69.951 20.823,72.593 22.197,75.091L13.356,90.687C15.877,93.835 18.738,96.695 21.886,99.216L37.485,90.376C39.983,91.75 42.625,92.844 45.364,93.639L50.142,110.918C54.151,111.361 58.196,111.361 62.205,110.918L66.983,93.639C69.722,92.844 72.364,91.75 74.862,90.376L90.461,99.216C93.609,96.695 96.47,93.835 98.991,90.687L90.15,75.091C91.524,72.593 92.619,69.951 93.414,67.213L110.695,62.436C111.138,58.427 111.138,54.382 110.695,50.374L93.414,45.596C92.619,42.858 91.524,40.217 90.15,37.719L98.991,22.123C96.47,18.975 93.609,16.114 90.461,13.594L74.862,22.433C72.364,21.059 69.722,19.965 66.983,19.17L62.205,1.892Z" style="fill:none;stroke:#C5C5C5;stroke-width:8px;"/>
        </g>
    </g>
</svg>
