<?xml version="1.0" encoding="UTF-8" standalone="no"?>
<svg width="100%" height="100%" viewBox="0 0 256 256" version="1.1" xmlns="http://www.w3.org/2000/svg" style="fill-rule:evenodd;clip-rule:evenodd;stroke-linejoin:round;stroke-miterlimit:2;">
    <g transform="matrix(1.60974,0,0,1.17584,-32.6781,-32.0138)">
        <path d="M32.251,39.157C32.251,37.511 31.276,36.175 30.074,36.175L25.718,36.175C24.516,36.175 23.54,37.511 23.54,39.157L23.54,203.992C23.54,205.637 24.516,206.973 25.718,206.973L30.074,206.973C31.276,206.973 32.251,205.637 32.251,203.992L32.251,39.157Z"/>
    </g>
    <g transform="matrix(0.000113742,1.60862,-1.17297,8.29385e-05,288.916,198.584)">
        <path d="M32.251,39.162C32.251,37.514 31.276,36.175 30.074,36.175L25.718,36.175C24.516,36.175 23.54,37.514 23.54,39.162L23.54,203.986C23.54,205.635 24.516,206.973 25.718,206.973L30.074,206.973C31.276,206.973 32.251,205.635 32.251,203.986L32.251,39.162Z"/>
    </g>
    <g transform="matrix(1.13258,1.13295,-0.475411,0.475256,102.444,90.5677)">
        <path d="M32.251,41.365C32.251,38.501 31.276,36.175 30.074,36.175L25.718,36.175C24.516,36.175 23.54,38.501 23.54,41.365L23.54,201.783C23.54,204.648 24.516,206.973 25.718,206.973L30.074,206.973C31.276,206.973 32.251,204.648 32.251,201.783L32.251,41.365Z"/>
    </g>
    <g transform="matrix(1,0,0,1,28.5296,-33.8038)">
        <path d="m 85.057999,106.864 q 5.264,0 9.632,-1.792 4.48,-1.792 7.840001,-5.152002 3.36,-3.36 5.152,-7.952 1.904,-4.592 1.904,-10.192 0,-5.6 -1.904,-10.192 -1.792,-4.592 -5.152,-7.952 -3.248001,-3.36 -7.728001,-5.152 -4.48,-1.792 -9.744,-1.792 -5.264,0 -9.744,1.792 -4.368,1.792 -7.728,5.152 -7.056,7.056 -7.056,18.144 0,10.976 7.056,18.144 6.72,6.944002 17.472,6.944002 z m 30.576001,4.032 q -5.712,5.376 -13.552,8.4 -7.728001,3.024 -17.024001,3.024 -9.184,0 -17.136,-3.024 -7.84,-3.024 -13.664,-8.512 -5.712,-5.488 -8.96,-12.880002 -3.136,-7.392 -3.136,-16.128 0,-8.736 3.136,-16.128 3.248,-7.392 9.072,-12.88 12.208,-11.536 30.688,-11.536 18.480001,0 30.688001,11.536 12.208,11.648 12.208,29.008 0,8.736 -3.248,16.24 -3.248,7.392002 -9.072,12.880002 z m 95.87198,-2.576 q -11.424,14 -32.368,14 -18.48,0 -30.352,-11.424 -12.096,-11.648002 -12.096,-29.120002 0,-17.584 12.208,-29.12 11.984,-11.424 30.352,-11.424 20.832,0 32.256,13.888 l -11.648,10.752 q -8.064,-9.184 -19.712,-9.184 -11.088,0 -18.032,6.944 -7.056,7.056 -7.056,18.144 0,11.088 7.056,18.144 6.944,6.944002 18.368,6.944002 11.424,0 19.376,-9.296002 z" aria-label="OC"/>
    </g>
    <g transform="matrix(1,0,0,1,127.798,59.2237)">
        <path d="M 47.089999,120.976 V 42.575998 h 33.936 q 10.528,0 18.144,3.472 7.616001,3.36 11.760001,9.744 4.144,6.384 4.144,15.232 0,8.736 -4.144,15.12 -4.144,6.384 -11.760001,9.856 -7.616,3.36 -18.144,3.36 h -15.792 V 120.976 Z m 18.144,-63.616002 v 27.216 h 14.784 q 8.4,0 12.544,-3.584 4.144,-3.584 4.144,-9.968 0,-6.496 -4.144,-10.08 -4.144,-3.584 -12.544,-3.584 z" aria-label="P"/>
    </g>
</svg>
