<?xml version="1.0" encoding="UTF-8" standalone="no"?><!DOCTYPE svg PUBLIC "-//W3C//DTD SVG 1.1//EN" "http://www.w3.org/Graphics/SVG/1.1/DTD/svg11.dtd"><svg width="100%" height="100%" viewBox="0 0 96 96" version="1.1" xmlns="http://www.w3.org/2000/svg" xmlns:xlink="http://www.w3.org/1999/xlink" xml:space="preserve" xmlns:serif="http://www.serif.com/" style="fill-rule:evenodd;clip-rule:evenodd;stroke-linejoin:round;stroke-miterlimit:2;"><path d="M7.214,5.261c0,-0.726 -0.589,-1.315 -1.314,-1.315l-2.629,0c-0.726,0 -1.315,0.589 -1.315,1.315l-0,72.682c-0,0.726 0.589,1.315 1.315,1.315l2.629,-0c0.725,-0 1.314,-0.589 1.314,-1.315l0,-72.682Z"/><path d="M91.119,93.925c0.725,0 1.313,-0.589 1.313,-1.314l0,-2.627c0,-0.725 -0.589,-1.314 -1.314,-1.314l-72.5,0.005c-0.725,0.001 -1.314,0.589 -1.314,1.314l0.001,2.628c-0,0.725 0.588,1.313 1.313,1.313l72.501,-0.005Z"/><path d="M44.74,55.037c0.51,-0.51 0.511,-1.339 0,-1.85l-1.85,-1.85c-0.51,-0.511 -1.339,-0.511 -1.85,-0.001l-28.599,28.59c-0.511,0.511 -0.511,1.34 -0,1.85l1.849,1.851c0.511,0.511 1.34,0.511 1.851,0l28.599,-28.59Z"/><text x="24.871px" y="36.385px" style="font-family:'Futura-Bold', 'Futura', sans-serif;font-weight:700;font-size:42px;">OC</text><text x="63.537px" y="73.855px" style="font-family:'Futura-Bold', 'Futura', sans-serif;font-weight:700;font-size:42px;">P</text></svg>