<?xml version="1.0" encoding="UTF-8" standalone="no"?>
<!DOCTYPE svg PUBLIC "-//W3C//DTD SVG 1.1//EN" "http://www.w3.org/Graphics/SVG/1.1/DTD/svg11.dtd">
<svg width="100%" height="100%" viewBox="0 0 256 256" version="1.1" xmlns="http://www.w3.org/2000/svg" xmlns:xlink="http://www.w3.org/1999/xlink" xml:space="preserve" xmlns:serif="http://www.serif.com/" style="fill-rule:evenodd;clip-rule:evenodd;stroke-linejoin:round;stroke-miterlimit:2;">
    <g transform="matrix(1.60974,0,0,1.17584,-32.6781,-32.0138)">
        <path d="M32.251,39.157C32.251,37.511 31.276,36.175 30.074,36.175L25.718,36.175C24.516,36.175 23.54,37.511 23.54,39.157L23.54,203.992C23.54,205.637 24.516,206.973 25.718,206.973L30.074,206.973C31.276,206.973 32.251,205.637 32.251,203.992L32.251,39.157Z"/>
    </g>
    <g transform="matrix(0.000113742,1.60862,-1.17297,8.29385e-05,288.916,198.584)">
        <path d="M32.251,39.162C32.251,37.514 31.276,36.175 30.074,36.175L25.718,36.175C24.516,36.175 23.54,37.514 23.54,39.162L23.54,203.986C23.54,205.635 24.516,206.973 25.718,206.973L30.074,206.973C31.276,206.973 32.251,205.635 32.251,203.986L32.251,39.162Z"/>
    </g>
    <g transform="matrix(1.13258,1.13295,-0.475411,0.475256,102.444,90.5677)">
        <path d="M32.251,41.365C32.251,38.501 31.276,36.175 30.074,36.175L25.718,36.175C24.516,36.175 23.54,38.501 23.54,41.365L23.54,201.783C23.54,204.648 24.516,206.973 25.718,206.973L30.074,206.973C31.276,206.973 32.251,204.648 32.251,201.783L32.251,41.365Z"/>
    </g>
    <g transform="matrix(1,0,0,1,28.5296,-33.8038)">
        <text x="37.794px" y="120.976px" style="font-family:'Montserrat-Bold', 'Montserrat';font-weight:700;font-size:112px;">OC</text>
    </g>
    <g transform="matrix(1,0,0,1,127.798,59.2237)">
        <text x="37.794px" y="120.976px" style="font-family:'Montserrat-Bold', 'Montserrat';font-weight:700;font-size:112px;">P</text>
    </g>
</svg>
