<?xml version="1.0" encoding="UTF-8" standalone="no"?>
<!DOCTYPE svg PUBLIC "-//W3C//DTD SVG 1.1//EN" "http://www.w3.org/Graphics/SVG/1.1/DTD/svg11.dtd">
<svg width="100%" height="100%" viewBox="0 0 768 768" version="1.1" xmlns="http://www.w3.org/2000/svg" xmlns:xlink="http://www.w3.org/1999/xlink" xml:space="preserve" xmlns:serif="http://www.serif.com/" style="fill-rule:evenodd;clip-rule:evenodd;stroke-linejoin:round;stroke-miterlimit:2;">
    <g transform="matrix(1.5,0,0,1.5,0,0)">
        <g transform="matrix(1.31964,0,0,1.7682,-237.782,-313.884)">
            <ellipse cx="374.073" cy="322.354" rx="192.92" ry="144.157" style="fill:rgb(231,231,231);"/>
        </g>
        <g transform="matrix(1.25761,0,0,1,-137.782,-17.3649)">
            <path d="M206.866,277.655C206.866,283.255 207.707,288.419 209.389,293.148C211.071,297.877 213.347,301.984 216.217,305.468C219.086,308.953 222.426,311.659 226.236,313.588C230.046,315.517 234.078,316.481 238.333,316.481C242.588,316.481 246.62,315.517 250.43,313.588C254.24,311.659 257.604,308.953 260.523,305.468C263.442,301.984 265.743,297.877 267.425,293.148C269.107,288.419 269.949,283.255 269.949,277.655C269.949,272.055 269.107,266.89 267.425,262.161C265.743,257.433 263.442,253.326 260.523,249.841C257.604,246.357 254.24,243.65 250.43,241.721C246.62,239.793 242.588,238.828 238.333,238.828C234.078,238.828 230.046,239.793 226.236,241.721C222.426,243.65 219.086,246.357 216.217,249.841C213.347,253.326 211.071,257.433 209.389,262.161C207.707,266.89 206.866,272.055 206.866,277.655ZM176.438,277.655C176.438,267.201 177.971,257.464 181.039,248.441C184.106,239.419 188.361,231.548 193.804,224.828C199.246,218.108 205.752,212.85 213.322,209.055C220.892,205.259 229.229,203.361 238.333,203.361C247.338,203.361 255.65,205.259 263.269,209.055C270.889,212.85 277.444,218.108 282.936,224.828C288.428,231.548 292.708,239.419 295.775,248.441C298.843,257.464 300.377,267.201 300.377,277.655C300.377,288.108 298.843,297.846 295.775,306.868C292.708,315.89 288.428,323.761 282.936,330.481C277.444,337.201 270.889,342.459 263.269,346.255C255.65,350.05 247.338,351.948 238.333,351.948C229.229,351.948 220.892,350.05 213.322,346.255C205.752,342.459 199.246,337.201 193.804,330.481C188.361,323.761 184.106,315.89 181.039,306.868C177.971,297.846 176.438,288.108 176.438,277.655Z" style="fill:rgb(83,160,227);fill-rule:nonzero;"/>
            <path d="M446.877,271.868L456.525,271.868C467.212,271.868 472.556,266.019 472.556,254.321C472.556,242.624 467.212,236.775 456.525,236.775L446.877,236.775L446.877,271.868ZM446.877,348.028L417.785,348.028L417.785,207.281L464.095,207.281C476.662,207.281 486.286,211.388 492.965,219.601C499.644,227.815 502.984,239.388 502.984,254.321C502.984,269.255 499.644,280.828 492.965,289.041C486.286,297.255 476.662,301.361 464.095,301.361L446.877,301.361L446.877,348.028Z" style="fill:rgb(83,160,227);fill-rule:nonzero;"/>
        </g>
        <g transform="matrix(1,0,0,1,-0.0603845,-0.215659)">
            <path d="M302.232,283.464C303.357,285.047 304.599,286.531 305.96,287.917C309.383,291.401 313.396,294.139 318,296.13C322.605,298.121 327.583,299.117 332.934,299.117C344.632,299.117 355.147,294.139 364.48,284.183L364.48,327.49L360.747,328.797C355.147,330.788 349.92,332.25 345.067,333.183C340.214,334.117 335.423,334.583 330.694,334.583C320.987,334.583 311.685,332.748 302.787,329.077C293.889,325.405 286.049,320.241 279.267,313.583C278.581,312.91 277.909,312.224 277.252,311.526C287.334,303.18 295.785,293.735 302.232,283.464ZM265.542,295.184C264.619,293.464 263.75,291.695 262.934,289.877C258.827,280.73 256.774,270.743 256.774,259.917C256.774,249.09 258.796,239.165 262.84,230.143C263.532,228.6 264.264,227.094 265.036,225.624C276.061,235.85 284.355,247.758 289.098,260.74L295.045,260.74L295.046,260.806L288.817,260.806C284.187,273.478 276.174,285.127 265.542,295.184ZM276.635,209.283C277.429,208.44 278.244,207.615 279.08,206.81C285.863,200.277 293.734,195.174 302.694,191.503C311.654,187.832 321.049,185.997 330.88,185.997C336.48,185.997 341.987,186.588 347.4,187.77C352.814,188.952 358.507,190.788 364.48,193.277L364.48,236.957C356.018,226.628 345.565,221.463 333.12,221.463C327.645,221.463 322.574,222.459 317.907,224.45C313.24,226.441 309.227,229.148 305.867,232.57C304.447,234.016 303.155,235.579 301.991,237.258C295.419,227.004 286.843,217.586 276.635,209.283Z" style="fill:rgb(83,160,227);fill-rule:nonzero;"/>
        </g>
        <g id="eye">
            <g id="eye1" serif:id="eye" transform="matrix(0.965671,0,0,0.950412,3.56479,12.8839)">
                <clipPath id="_clip1">
                    <rect x="8.263" y="168.288" width="309.56" height="184.211"/>
                </clipPath>
                <g clip-path="url(#_clip1)">
                    <g transform="matrix(-1.20633,8.13437e-05,-7.535e-05,-1.19685,366.049,562.573)">
                        <clipPath id="_clip2">
                            <rect x="36.428" y="175.541" width="263.698" height="77.223"/>
                        </clipPath>
                        <g clip-path="url(#_clip2)">
                            <path d="M168.278,175.541C241.047,175.541 300.127,220.139 300.127,275.071C300.127,330.003 241.047,374.601 168.278,374.601C95.508,374.601 36.428,330.003 36.428,275.071C36.428,220.139 95.508,175.541 168.278,175.541ZM168.278,187.485C232.315,187.485 284.305,226.731 284.305,275.071C284.305,323.411 232.315,362.657 168.278,362.657C104.24,362.657 52.25,323.411 52.25,275.071C52.25,226.731 104.24,187.485 168.278,187.485Z" style="fill:rgb(50,50,50);"/>
                        </g>
                    </g>
                    <g transform="matrix(1.20633,0,0,1.19685,-39.9129,-41.8092)">
                        <clipPath id="_clip3">
                            <rect x="36.428" y="175.541" width="263.698" height="77.223"/>
                        </clipPath>
                        <g clip-path="url(#_clip3)">
                            <path d="M168.278,175.541C241.047,175.541 300.127,220.139 300.127,275.071C300.127,330.003 241.047,374.601 168.278,374.601C95.508,374.601 36.428,330.003 36.428,275.071C36.428,220.139 95.508,175.541 168.278,175.541ZM168.278,187.485C232.315,187.485 284.305,226.731 284.305,275.071C284.305,323.411 232.315,362.657 168.278,362.657C104.24,362.657 52.25,323.411 52.25,275.071C52.25,226.731 104.24,187.485 168.278,187.485Z" style="fill:rgb(50,50,50);"/>
                        </g>
                    </g>
                </g>
            </g>
            <g transform="matrix(0.95933,0,0,0.961403,25.0779,11.9276)">
                <g id="pupil">
                    <ellipse cx="141.713" cy="258.843" rx="42.651" ry="41.678" style="fill:rgb(50,50,50);"/>
                </g>
            </g>
        </g>
    </g>
</svg>
