<?xml version='1.0' encoding='utf-8'?>
<svg width="60.937979mm" height="43.883585mm" viewBox="-33.898986 -21.941793 60.937979 43.883585" version="1.1" xmlns="http://www.w3.org/2000/svg">
  <g transform="scale(1,-1)" stroke-linecap="round">
    <g fill="rgb(51,51,51)" stroke="rgb(0,0,0)" stroke-width="0.0" id="black">
      <path d="M -0.236577,0.382654 A 17.318493150684933,17.318493150684933 146.45066709212156 0,1 -29.103397,0.382654 A 1.0,1.0 56.450667092121584 0,1 -29.103397,-0.722656 A 17.318493150684933,17.318493150684933 -146.4506670921216 0,1 -0.236577,-0.722656 A 1.0,1.0 -123.54933290787842 0,1 -0.236577,0.382654 M -28.269987,-0.170001 A 16.318493150684933,16.318493150684933 146.45066709212156 0,0 -1.069987,-0.170001 A 16.318493150684933,16.318493150684933 -146.45066709212156 0,0 -28.269987,-0.170001" />
      <path d="M -18.159961,1.479999 Q -18.449967,0.749986 -18.449967,-0.170001 Q -18.449967,-1.070001 -18.159961,-1.810008 Q -17.869954,-2.550014 -17.359961,-3.079995 Q -16.849967,-3.609975 -16.159961,-3.889988 Q -15.469954,-4.170001 -14.669954,-4.170001 Q -13.869954,-4.170001 -13.17998,-3.889988 Q -12.490007,-3.609975 -11.97998,-3.079995 Q -11.469954,-2.550014 -11.17998,-1.810008 Q -10.890007,-1.070001 -10.890007,-0.170001 Q -10.890007,0.749986 -11.17998,1.479999 Q -11.469954,2.210012 -11.97998,2.739992 Q -12.490007,3.269973 -13.17998,3.549986 Q -13.869954,3.829999 -14.669954,3.829999 Q -15.469954,3.829999 -16.159961,3.549986 Q -16.849967,3.269973 -17.359961,2.739992 Q -17.869954,2.210012 -18.159961,1.479999" />
    </g>
    <g fill="rgb(85,160,227)" stroke="rgb(0,0,0)" stroke-width="0.0" id="blue">
      <path d="M 9.790007,-7.170001 L 13.750033,-7.170001 L 13.750033,-3.509975 L 16.190007,-3.509975 Q 18.109993,-3.509975 19.5,-2.879995 Q 20.890007,-2.250014 21.65,-1.090021 Q 22.409993,0.069973 22.409993,1.649986 Q 22.409993,3.249986 21.65,4.420005 Q 20.890007,5.590025 19.5,6.210012 Q 18.109993,6.829999 16.190007,6.829999 L 9.790007,6.829999 L 9.790007,-7.170001 M 13.750033,-0.389988 L 13.750033,3.710012 L 15.950033,3.710012 Q 17.190007,3.710012 17.8,3.170005 Q 18.409993,2.629999 18.409993,1.649986 Q 18.409993,0.690025 17.8,0.150018 Q 17.190007,-0.389988 15.950033,-0.389988 L 13.750033,-0.389988" />
      <path d="M -17.769987,-6.910008 Q -16.349967,-7.450014 -14.669954,-7.450014 Q -12.969954,-7.450014 -11.559961,-6.910008 Q -10.149967,-6.370001 -9.109961,-5.389988 Q -8.069954,-4.409975 -7.47998,-3.079995 Q -6.890007,-1.750014 -6.890007,-0.170001 Q -6.890007,1.410012 -7.47998,2.729999 Q -8.069954,4.049986 -9.109961,5.039992 Q -10.149967,6.029999 -11.559961,6.570005 Q -12.969954,7.110012 -14.669954,7.110012 Q -16.349967,7.110012 -17.769987,6.570005 Q -19.190007,6.029999 -20.240007,5.039992 Q -21.290007,4.049986 -21.869987,2.729999 Q -22.449967,1.410012 -22.449967,-0.170001 Q -22.449967,-1.750014 -21.869987,-3.070001 Q -21.290007,-4.389988 -20.240007,-5.379995 Q -19.190007,-6.370001 -17.769987,-6.910008 M -13.17998,-3.889988 Q -13.869954,-4.170001 -14.669954,-4.170001 Q -15.469954,-4.170001 -16.159961,-3.889988 Q -16.849967,-3.609975 -17.359961,-3.079995 Q -17.869954,-2.550014 -18.159961,-1.810008 Q -18.449967,-1.070001 -18.449967,-0.170001 Q -18.449967,0.749986 -18.159961,1.479999 Q -17.869954,2.210012 -17.359961,2.739992 Q -16.849967,3.269973 -16.159961,3.549986 Q -15.469954,3.829999 -14.669954,3.829999 Q -13.869954,3.829999 -13.17998,3.549986 Q -12.490007,3.269973 -11.97998,2.739992 Q -11.469954,2.210012 -11.17998,1.479999 Q -10.890007,0.749986 -10.890007,-0.170001 Q -10.890007,-1.070001 -11.17998,-1.810008 Q -11.469954,-2.550014 -11.97998,-3.079995 Q -12.490007,-3.609975 -13.17998,-3.889988" />
      <path d="M -0.9,-6.920001 Q 0.509993,-7.450014 2.17002,-7.450014 Q 4.109993,-7.450014 5.640007,-6.760008 Q 7.17002,-6.070001 8.190007,-4.809975 L 5.67002,-2.530027 Q 4.990007,-3.330027 4.180013,-3.750014 Q 3.37002,-4.170001 2.37002,-4.170001 Q 1.509993,-4.170001 0.790007,-3.889988 Q 0.07002,-3.609975 -0.439974,-3.079995 Q -0.776834,-2.729933 -1.017717,-2.288241 A 17.618493150684934,17.618493150684934 -146.4506670921216 0,0 -3.754351,-4.981193 Q -3.557182,-5.203381 -3.340007,-5.410008 Q -2.309993,-6.389988 -0.9,-6.920001" />
      <path d="M -4.95,-3.100014 Q -4.822512,-3.392371 -4.673278,-3.667815 A 16.018493150684932,16.018493150684932 -34.263875448391644 0,1 -1.528191,-0.310401 Q -1.52998,-0.240695 -1.52998,-0.170001 Q -1.52998,-0.099308 -1.528191,-0.029601 A 16.018493150684932,16.018493150684932 146.45066709212156 0,1 -4.673278,3.327812 Q -4.822512,3.052369 -4.95,2.760012 Q -5.52998,1.429999 -5.52998,-0.170001 Q -5.52998,-1.770001 -4.95,-3.100014" />
      <path d="M -3.340007,5.070005 Q -3.557182,4.863379 -3.754351,4.641191 A 17.618493150684934,17.618493150684934 146.45066709212156 0,0 -1.017717,1.948238 Q -0.776834,2.389931 -0.439974,2.739992 Q 0.07002,3.269973 0.790007,3.549986 Q 1.509993,3.829999 2.37002,3.829999 Q 3.37002,3.829999 4.180013,3.410012 Q 4.990007,2.990025 5.67002,2.190025 L 8.190007,4.469973 Q 7.17002,5.749986 5.640007,6.429999 Q 4.109993,7.110012 2.17002,7.110012 Q 0.509993,7.110012 -0.9,6.579999 Q -2.309993,6.049986 -3.340007,5.070005" />
    </g>
    <g fill="rgb(221,221,221)" stroke="rgb(0,0,0)" stroke-width="0.0" id="gray">
      <path d="M 24.993993,0.0 A 28.423989499999998,19.89679265 0.0 0,1 -31.853986,0.0 A 28.423989499999998,19.89679265 0.0 0,1 24.993993,-0.0 M 8.190007,-4.809975 Q 7.17002,-6.070001 5.640007,-6.760008 Q 4.109993,-7.450014 2.17002,-7.450014 Q 0.509993,-7.450014 -0.9,-6.920001 Q -2.309993,-6.389988 -3.340007,-5.410008 Q -3.557182,-5.203381 -3.754351,-4.981193 A 17.618493150684934,17.618493150684934 -146.4506670921216 0,1 -1.017717,-2.288241 Q -0.776834,-2.729933 -0.439974,-3.079995 Q 0.07002,-3.609975 0.790007,-3.889988 Q 1.509993,-4.170001 2.37002,-4.170001 Q 3.37002,-4.170001 4.180013,-3.750014 Q 4.990007,-3.330027 5.67002,-2.530027 L 8.190007,-4.809975 M 13.750033,-3.509975 L 13.750033,-7.170001 L 9.790007,-7.170001 L 9.790007,6.829999 L 16.190007,6.829999 Q 18.109993,6.829999 19.5,6.210012 Q 20.890007,5.590025 21.65,4.420005 Q 22.409993,3.249986 22.409993,1.649986 Q 22.409993,0.069973 21.65,-1.090021 Q 20.890007,-2.250014 19.5,-2.879995 Q 18.109993,-3.509975 16.190007,-3.509975 L 13.750033,-3.509975 M -29.103397,-0.722656 A 1.0,1.0 56.450667092121584 0,0 -29.103397,0.382654 A 17.318493150684933,17.318493150684933 146.45066709212156 0,0 -0.236577,0.382654 A 1.0,1.0 -123.54933290787842 0,0 -0.236577,-0.722656 A 17.318493150684933,17.318493150684933 -146.4506670921216 0,0 -29.103397,-0.722656 M -1.017717,1.948238 A 17.618493150684934,17.618493150684934 146.45066709212156 0,1 -3.754351,4.641191 Q -3.557182,4.863379 -3.340007,5.070005 Q -2.309993,6.049986 -0.9,6.579999 Q 0.509993,7.110012 2.17002,7.110012 Q 4.109993,7.110012 5.640007,6.429999 Q 7.17002,5.749986 8.190007,4.469973 L 5.67002,2.190025 Q 4.990007,2.990025 4.180013,3.410012 Q 3.37002,3.829999 2.37002,3.829999 Q 1.509993,3.829999 0.790007,3.549986 Q 0.07002,3.269973 -0.439974,2.739992 Q -0.776834,2.389931 -1.017717,1.948238" />
      <path d="M -1.069987,-0.170001 A 16.318493150684933,16.318493150684933 146.45066709212156 0,1 -28.269987,-0.170001 A 16.318493150684933,16.318493150684933 -146.45066709212156 0,1 -1.069987,-0.170001 M -14.669954,-7.450014 Q -16.349967,-7.450014 -17.769987,-6.910008 Q -19.190007,-6.370001 -20.240007,-5.379995 Q -21.290007,-4.389988 -21.869987,-3.070001 Q -22.449967,-1.750014 -22.449967,-0.170001 Q -22.449967,1.410012 -21.869987,2.729999 Q -21.290007,4.049986 -20.240007,5.039992 Q -19.190007,6.029999 -17.769987,6.570005 Q -16.349967,7.110012 -14.669954,7.110012 Q -12.969954,7.110012 -11.559961,6.570005 Q -10.149967,6.029999 -9.109961,5.039992 Q -8.069954,4.049986 -7.47998,2.729999 Q -6.890007,1.410012 -6.890007,-0.170001 Q -6.890007,-1.750014 -7.47998,-3.079995 Q -8.069954,-4.409975 -9.109961,-5.389988 Q -10.149967,-6.370001 -11.559961,-6.910008 Q -12.969954,-7.450014 -14.669954,-7.450014 M -1.528191,-0.310401 A 16.018493150684932,16.018493150684932 -34.263875448391644 0,0 -4.673278,-3.667815 Q -4.822512,-3.392371 -4.95,-3.100014 Q -5.52998,-1.770001 -5.52998,-0.170001 Q -5.52998,1.429999 -4.95,2.760012 Q -4.822512,3.052369 -4.673278,3.327812 A 16.018493150684932,16.018493150684932 146.45066709212156 0,0 -1.528191,-0.029601 Q -1.53177,-0.170001 -1.528191,-0.310401" />
      <path d="M 15.950033,3.710012 L 13.750033,3.710012 L 13.750033,-0.389988 L 15.950033,-0.389988 Q 17.190007,-0.389988 17.8,0.150018 Q 18.409993,0.690025 18.409993,1.649986 Q 18.409993,2.629999 17.8,3.170005 Q 17.190007,3.710012 15.950033,3.710012" />
    </g>
  </g>
</svg>