<svg xmlns="http://www.w3.org/2000/svg" viewBox="-18.2 -17.6 58.6500001 35.2" width="512" height="307.2872970037728" fill="none" stroke="none">
    <path d="M40.4500001,0 A29.32500005,17.6,180,1,1,-18.2,0 A29.32500005,17.6,180,1,1,40.4500001,-0 Z" fill="#f4f4f4"/>
    <path d="M-14.998457583548,-0.827377892031 A17.16,17.16,-150.93108983892,0,1,14.998457583548,-0.827377892031 A1.6,1.6,119.06891016108,0,1,14.998457583548,0.727377892031 A17.16,17.16,150.93108983892,0,1,-14.998457583548,0.727377892031 A1.6,1.6,-60.93108983892,0,1,-14.998457583548,-0.827377892031 Z M13.6,-0.05 A15.56,15.56,-150.93108983892,0,0,-13.6,-0.05 A15.56,15.56,29.06891016108,0,0,13.6,-0.05 Z" fill="#000"/>
    <path d="M-3.909993489583,1.610019938151 Q-4.25,0.850026448568,-4.25,-0.049973551432 Q-4.25,-0.949973551432,-3.909993489583,-1.709999593099 Q-3.569986979167,-2.470025634766,-2.990006510417,-3.030019124349 Q-2.410026041667,-3.590012613932,-1.640006510417,-3.900006103516 Q-0.869986979167,-4.209999593099,-0.010026041667,-4.209999593099 Q0.85,-4.209999593099,1.619986979167,-3.900006103516 Q2.389973958333,-3.590012613932,2.97998046875,-3.030019124349 Q3.569986979167,-2.470025634766,3.909993489583,-1.709999593099 Q4.25,-0.949973551432,4.25,-0.049973551432 Q4.25,0.850026448568,3.909993489583,1.610019938151 Q3.569986979167,2.370013427734,2.97998046875,2.930006917318 Q2.389973958333,3.490000406901,1.619986979167,3.799993896484 Q0.85,4.109987386068,-0.010026041667,4.109987386068 Q-0.869986979167,4.109987386068,-1.640006510417,3.799993896484 Q-2.410026041667,3.490000406901,-2.990006510417,2.930006917318 Q-3.569986979167,2.370013427734,-3.909993489583,1.610019938151 Z" fill="#000"/>
    <path d="M-8.35,-0.049973551432 Q-8.35,-1.729986572266,-7.730013020833,-3.179986572266 Q-7.110026041667,-4.629986572266,-6.010026041667,-5.709999593099 Q-4.910026041667,-6.790012613932,-3.380013020833,-7.400006103516 Q-1.85,-8.009999593099,-0.010026041667,-8.009999593099 Q1.810026041667,-8.009999593099,3.35,-7.400006103516 Q4.889973958333,-6.790012613932,6,-5.709999593099 Q7.110026041667,-4.629986572266,7.730013020833,-3.179986572266 Q8.35,-1.729986572266,8.35,-0.049973551432 Q8.35,1.629974365234,7.730013020833,3.079974365234 Q7.110026041667,4.529974365234,6,5.609987386068 Q4.889973958333,6.690000406901,3.35,7.299993896484 Q1.810026041667,7.909987386068,-0.010026041667,7.909987386068 Q-1.85,7.909987386068,-3.380013020833,7.299993896484 Q-4.910026041667,6.690000406901,-6.010026041667,5.609987386068 Q-7.110026041667,4.529974365234,-7.730013020833,3.079974365234 Q-8.35,1.629974365234,-8.35,-0.049973551432 Z M-4.25,-0.049973551432 Q-4.25,0.850026448568,-3.909993489583,1.610019938151 Q-3.569986979167,2.370013427734,-2.990006510417,2.930006917318 Q-2.410026041667,3.490000406901,-1.640006510417,3.799993896484 Q-0.869986979167,4.109987386068,-0.010026041667,4.109987386068 Q0.85,4.109987386068,1.619986979167,3.799993896484 Q2.389973958333,3.490000406901,2.97998046875,2.930006917318 Q3.569986979167,2.370013427734,3.909993489583,1.610019938151 Q4.25,0.850026448568,4.25,-0.049973551432 Q4.25,-0.949973551432,3.909993489583,-1.709999593099 Q3.569986979167,-2.470025634766,2.97998046875,-3.030019124349 Q2.389973958333,-3.590012613932,1.619986979167,-3.900006103516 Q0.85,-4.209999593099,-0.010026041667,-4.209999593099 Q-0.869986979167,-4.209999593099,-1.640006510417,-3.900006103516 Q-2.410026041667,-3.590012613932,-2.990006510417,-3.030019124349 Q-3.569986979167,-2.470025634766,-3.909993489583,-1.709999593099 Q-4.25,-0.949973551432,-4.25,-0.049973551432 Z" fill="#55a0e3"/>
    <path d="M27.889973958333,2.490000406901 L27.889973958333,7.490000406901 L23.969986979167,7.490000406901 L23.969986979167,-7.590012613932 L30.2099609375,-7.590012613932 Q32.75,-7.590012613932,34.1,-6.269993082682 Q35.45,-4.949973551432,35.45,-2.549973551432 Q35.45,-0.149973551432,34.1,1.170013427734 Q32.75,2.490000406901,30.2099609375,2.490000406901 L27.889973958333,2.490000406901 Z M27.889973958333,-4.429986572266 L27.889973958333,-0.670025634766 L29.189973958333,-0.670025634766 Q31.35,-0.670025634766,31.35,-2.549973551432 Q31.35,-4.429986572266,29.189973958333,-4.429986572266 L27.889973958333,-4.429986572266 Z" fill="#55a0e3"/>
    <path d="M21.489973958333,-7.229986572266 L21.489973958333,-2.549973551432 Q20.130013020833,-4.209999593099,18.130013020833,-4.209999593099 Q17.25,-4.209999593099,16.5,-3.890012613932 Q15.75,-3.570025634766,15.209993489583,-3.020025634766 Q14.814736535892,-2.617453961393,14.542708736627,-2.102361129747 A17.46,17.46,-150.93108983892,0,0,11.850440273658,-5.262584190422 Q12.082991678673,-5.532404956237,12.340006510417,-5.779986572266 Q13.430013020833,-6.829986572266,14.87001953125,-7.419993082682 Q16.310026041667,-8.009999593099,17.889973958333,-8.009999593099 Q18.789973958333,-8.009999593099,19.659993489583,-7.819993082682 Q20.530013020833,-7.629986572266,21.489973958333,-7.229986572266 Z" fill="#55a0e3"/>
    <path d="M14.578619695811,2.048092826618 Q14.842891490083,2.526072631172,15.219986979167,2.910019938151 Q15.769986979167,3.470013427734,16.509993489583,3.790000406901 Q17.25,4.109987386068,18.110026041667,4.109987386068 Q19.989973958333,4.109987386068,21.489973958333,2.509987386068 L21.489973958333,7.150026448568 L21.089973958333,7.290000406901 Q20.189973958333,7.609987386068,19.409993489583,7.759987386068 Q18.630013020833,7.909987386068,17.869986979167,7.909987386068 Q16.310026041667,7.909987386068,14.880013020833,7.319980875651 Q13.45,6.729974365234,12.359993489583,5.659987386068 Q12.132113858553,5.436293090951,11.923028885964,5.195115922032 A17.46,17.46,150.93108983892,0,0,14.578619695811,2.048092826618 Z" fill="#55a0e3"/>
    <path d="M10.643472003226,-3.375451692388 A15.26,15.26,-150.93108983892,0,1,13.25571574831,-0 A15.26,15.26,29.696977423764,0,1,10.701855566046,3.318321903836 Q10.654927905715,3.220094728039,10.609993489583,3.120013427734 Q9.95,1.650026448568,9.95,-0.090012613932 Q9.95,-1.829986572266,10.6,-3.279986572266 Q10.621495402752,-3.327937855328,10.643472003226,-3.375451692388 Z" fill="#55a0e3"/>
</svg>
